HIERARCHY
ROOT Hips
{
	OFFSET 0.000000 0.000000 0.000000
	CHANNELS 6 Xposition Yposition Zposition Zrotation Yrotation Xrotation 
	JOINT LHipJoint
	{
		OFFSET 0.000000 0.000000 0.000000
		CHANNELS 3 Zrotation Yrotation Xrotation
		JOINT LeftUpLeg
		{
			OFFSET 1.363060 -1.794630 0.839290
			CHANNELS 3 Zrotation Yrotation Xrotation
			JOINT LeftLeg
			{
				OFFSET 2.448110 -6.726130 0.000000
				CHANNELS 3 Zrotation Yrotation Xrotation
				JOINT LeftFoot
				{
					OFFSET 2.562200 -7.039590 0.000000
					CHANNELS 3 Zrotation Yrotation Xrotation
					JOINT LeftToeBase
					{
						OFFSET 0.157640 -0.433110 2.322550
						CHANNELS 3 Zrotation Yrotation Xrotation
						End Site
						{
							OFFSET 0.000000 0.000000 0.000000
						}
					}
				}
			}
		}
	}
	JOINT RHipJoint
	{
		OFFSET 0.000000 0.000000 0.000000
		CHANNELS 3 Zrotation Yrotation Xrotation
		JOINT RightUpLeg
		{
			OFFSET -1.305520 -1.794630 0.839290
			CHANNELS 3 Zrotation Yrotation Xrotation
			JOINT RightLeg
			{
				OFFSET -2.542530 -6.985550 0.000000
				CHANNELS 3 Zrotation Yrotation Xrotation
				JOINT RightFoot
				{
					OFFSET -2.568260 -7.056230 0.000000
					CHANNELS 3 Zrotation Yrotation Xrotation
					JOINT RightToeBase
					{
						OFFSET -0.164730 -0.452590 2.363150
						CHANNELS 3 Zrotation Yrotation Xrotation
						End Site
						{
							OFFSET 0.000000 0.000000 0.000000
						}
					}
				}
			}
		}
	}
}
MOTION
Frames: 28
Frame Time: 0.008333
1.210366 17.574844 1.763081 8.112839 -52.548352 8.863469 -9.519883 1.932928 7.823107 -6.357645 -13.960031 -17.833271 -2.806141 -1.662783 -2.892252 -0.365522 1.442767 11.286785 1.134800 0.000000 -49.976400 11.296296 -3.074189 -1.933843 3.043633 -35.036735 -10.959850 2.424910 0.791641 -3.644185 -2.813634 -19.899709 14.613098 -8.554300 0.000000 -71.737600
1.209430 17.575787 1.780381 7.752545 -52.116769 8.962786 -9.489460 1.977861 7.950318 -6.081222 -14.539927 -17.578050 -2.752298 -1.640386 -2.935359 -0.331075 1.654398 11.188231 1.190700 0.000000 -49.860800 11.310600 -3.112466 -2.013642 2.969065 -35.282557 -10.469070 2.419156 0.787433 -3.701124 -2.804961 -20.027842 14.919701 -8.694399 0.000000 -71.877200
1.210734 17.575451 1.798219 7.379821 -51.697689 9.093233 -9.467385 2.015017 8.067602 -5.792160 -15.137162 -17.360662 -2.689576 -1.614873 -2.931298 -0.287154 1.918055 11.017725 1.258100 0.000001 -49.681000 11.310303 -3.142165 -2.102139 2.917171 -35.472319 -10.011102 2.410098 0.779098 -3.685492 -2.804715 -20.190408 15.171611 -8.836800 0.000000 -71.989401
1.213928 17.573716 1.816190 6.999074 -51.313022 9.256376 -9.453455 2.045488 8.173120 -5.496392 -15.721293 -17.191299 -2.620548 -1.587920 -2.880525 -0.235975 2.217059 10.778316 1.331200 0.000001 -49.458400 11.296286 -3.164422 -2.191202 2.898591 -35.596061 -9.610163 2.398709 0.767375 -3.594100 -2.811952 -20.376361 15.357362 -8.973600 -0.000000 -72.082800
1.218129 17.570378 1.834058 6.614796 -50.988629 9.460295 -9.444409 2.072166 8.270788 -5.197387 -16.270228 -17.084514 -2.548357 -1.562951 -2.794882 -0.179086 2.545434 10.478241 1.408300 0.000000 -49.210500 11.271744 -3.180854 -2.265363 2.928622 -35.630111 -9.301632 2.385314 0.754307 -3.424538 -2.826957 -20.579001 15.453831 -9.095300 -0.000000 -72.132700
1.222810 17.565295 1.851424 6.224905 -50.733218 9.702378 -9.437858 2.098542 8.361307 -4.898229 -16.762166 -17.040706 -2.475145 -1.540740 -2.673793 -0.119138 2.880604 10.120754 1.481700 0.000001 -48.965600 11.240414 -3.193383 -2.321021 3.009469 -35.587845 -9.089298 2.372013 0.741115 -3.184687 -2.846782 -20.782044 15.462170 -9.193799 -0.000000 -72.159900
1.227425 17.558347 1.868028 5.827578 -50.554579 9.982242 -9.431176 2.127972 8.447514 -4.600531 -17.183959 -17.060908 -2.402753 -1.522357 -2.522433 -0.058070 3.207927 9.712150 1.546600 0.000000 -48.746500 11.205747 -3.203467 -2.353423 3.143361 -35.477195 -8.978307 2.360343 0.729399 -2.883344 -2.869431 -20.974271 15.380846 -9.262701 -0.000000 -72.166200
1.231463 17.549504 1.883613 5.424173 -50.452231 10.297224 -9.422544 2.162082 8.531383 -4.305840 -17.528822 -17.144081 -2.332801 -1.508386 -2.344741 0.002277 3.514294 9.260129 1.599200 -0.000000 -48.570000 11.170566 -3.212315 -2.360665 3.328876 -35.309550 -8.966756 2.351321 0.720278 -2.532164 -2.893776 -21.150080 15.213486 -9.299200 0.000000 -72.159601
1.234587 17.538856 1.897867 5.019070 -50.416935 10.640451 -9.410590 2.200091 8.613318 -4.017664 -17.796771 -17.284401 -2.266982 -1.499159 -2.143734 0.060211 3.789941 8.773854 1.637400 -0.000000 -48.440400 11.137335 -3.220911 -2.344039 3.559200 -35.100670 -9.046585 2.345728 0.713831 -2.142471 -2.919063 -21.304239 14.964446 -9.300900 -0.000000 -72.122300
1.236651 17.526617 1.910853 4.612991 -50.433599 11.013250 -9.396710 2.239538 8.693997 -3.731537 -17.998448 -17.481142 -2.205205 -1.494295 -1.922175 0.115051 4.031933 8.262513 1.661000 0.000000 -48.372000 11.105227 -3.230278 -2.306286 3.834399 -34.858370 -9.207231 2.343293 0.710612 -1.734152 -2.947028 -21.450785 14.651248 -9.279200 0.000000 -72.101800
1.237685 17.513094 1.922144 4.218059 -50.485268 11.396122 -9.379150 2.278352 8.770794 -3.459107 -18.138973 -17.717877 -2.149585 -1.493356 -1.680674 0.165314 4.233947 7.737108 1.669601 -0.000000 -48.340900 11.077328 -3.240166 -2.253747 4.134203 -34.605492 -9.427407 2.344126 0.709270 -1.313616 -2.976502 -21.580709 14.277688 -9.229200 0.000000 -72.022099
1.237707 17.498656 1.932013 3.836850 -50.558392 11.793311 -9.359730 2.314910 8.847674 -3.191181 -18.244449 -17.998409 -2.098394 -1.495617 -1.425812 0.212427 4.408711 7.207661 1.668100 0.000000 -48.349100 11.050989 -3.250109 -2.187814 4.462198 -34.337132 -9.699690 2.346580 0.711328 -0.902186 -3.011179 -21.722011 13.863504 -9.170300 0.000000 -71.955300
1.237217 17.483669 1.940122 3.482219 -50.639884 12.179448 -9.338154 2.347949 8.920379 -2.941848 -18.322598 -18.300598 -2.052555 -1.499261 -1.157139 0.255880 4.554244 6.683440 1.657000 0.000000 -48.368600 11.027552 -3.257606 -2.118630 4.792380 -34.076554 -9.995145 2.349974 0.715332 -0.504079 -3.049411 -21.866797 13.418381 -9.100600 0.000000 -71.838300
1.236592 17.468545 1.946414 3.167471 -50.720831 12.537111 -9.315163 2.376704 8.987599 -2.717273 -18.390561 -18.607569 -2.011581 -1.502778 -0.880641 0.296707 4.680162 6.173883 1.639900 0.000000 -48.384500 11.006560 -3.259751 -2.053793 5.106580 -33.834452 -10.292224 2.352735 0.720785 -0.125679 -3.091326 -22.019637 12.954780 -9.025001 0.000000 -71.671300
1.236110 17.453541 1.951192 2.896761 -50.796352 12.866334 -9.291590 2.401384 9.053040 -2.513301 -18.469383 -18.923901 -1.973875 -1.505172 -0.599696 0.336604 4.798731 5.683800 1.620600 0.000000 -48.384499 10.985980 -3.254295 -1.993744 5.404508 -33.602515 -10.588355 2.353059 0.729032 0.224396 -3.139453 -22.198859 12.480640 -8.954800 -0.000000 -71.499200
1.236049 17.438927 1.954557 2.678760 -50.862343 13.157026 -9.267785 2.422271 9.116202 -2.334395 -18.568289 -19.242457 -1.939081 -1.505242 -0.315474 0.376100 4.914235 5.218016 1.600901 0.000000 -48.352400 10.965568 -3.238998 -1.941979 5.675310 -33.382687 -10.873057 2.349417 0.739809 0.545748 -3.194165 -22.409151 12.005107 -8.894400 -0.000000 -71.301800
1.237147 17.424987 1.956058 2.528210 -50.918864 13.374138 -9.243238 2.438179 9.169056 -2.199967 -18.689071 -19.521492 -1.908575 -1.501964 -0.041078 0.415179 5.031823 4.787124 1.582699 0.000000 -48.283700 10.947697 -3.210094 -1.911002 5.883337 -33.199796 -11.116120 2.341011 0.749793 0.850374 -3.251468 -22.626052 11.528496 -8.830800 0.000000 -71.040600
1.239122 17.411798 1.956476 2.436343 -50.965813 13.544485 -9.218492 2.451078 9.219470 -2.094642 -18.838395 -19.795170 -1.880784 -1.495598 0.230590 0.454181 5.151122 4.386734 1.566100 -0.000000 -48.168700 10.930006 -3.168704 -1.889414 6.053642 -33.021756 -11.342509 2.326308 0.761897 1.132564 -3.316482 -22.881178 11.055343 -8.780900 0.000000 -70.786300
1.242420 17.399510 1.955406 2.411486 -51.006389 13.641442 -9.192628 2.460040 9.259594 -2.034840 -19.008878 -20.024865 -1.857595 -1.486297 0.483209 0.492348 5.273606 4.027307 1.552500 -0.000000 -48.017700 10.915626 -3.113160 -1.885828 6.158483 -32.867640 -11.530159 2.304995 0.772698 1.405649 -3.385207 -23.149998 10.587517 -8.732900 -0.000000 -70.506400
1.246770 17.388164 1.953212 2.447192 -51.043286 13.675569 -9.165612 2.465983 9.290542 -2.016478 -19.192508 -20.216704 -1.839343 -1.474984 0.713866 0.528600 5.393417 3.709449 1.541300 0.000000 -47.838901 10.904611 -3.045361 -1.895112 6.207083 -32.726250 -11.689164 2.277389 0.782290 1.675220 -3.457894 -23.432026 10.120922 -8.685001 0.000000 -70.171400
1.252089 17.377769 1.950249 2.531774 -51.079315 13.663174 -9.137623 2.469367 9.314653 -2.032441 -19.382096 -20.384935 -1.825904 -1.462670 0.923596 0.562184 5.505621 3.430499 1.531600 0.000001 -47.629201 10.896507 -2.967365 -1.909579 6.213550 -32.578781 -11.834996 2.242748 0.791315 1.941201 -3.537281 -23.743722 9.663063 -8.647500 0.000001 -69.866500
1.258177 17.368326 1.946540 2.658266 -51.118805 13.603621 -9.109129 2.470269 9.327860 -2.085064 -19.559302 -20.512826 -1.818498 -1.450575 1.100090 0.591237 5.602029 3.195285 1.522700 -0.000000 -47.419700 10.892263 -2.881965 -1.930036 6.176770 -32.432869 -11.963331 2.203339 0.798079 2.212506 -3.619257 -24.058629 9.205709 -8.605500 0.000000 -69.495001
1.264776 17.359745 1.942409 2.848774 -51.179790 13.503168 -9.093764 2.463741 9.325258 -2.172030 -19.719895 -20.619482 -1.814815 -1.439119 1.242373 0.615484 5.682417 3.001159 1.514500 -0.000000 -47.202601 10.877977 -2.789818 -1.960764 6.105596 -32.269840 -12.095025 2.159921 0.803318 2.486587 -3.706664 -24.392982 8.760919 -8.571301 -0.000000 -69.162700
1.271554 17.352059 1.937922 3.033599 -51.239786 13.385641 -9.067504 2.460616 9.320200 -2.281241 -19.843987 -20.687579 -1.818850 -1.430395 1.343236 0.633840 5.737584 2.848611 1.506300 0.000000 -47.003500 10.878414 -2.696574 -1.978305 6.016839 -32.098742 -12.217929 2.112418 0.806416 2.764599 -3.795246 -24.726578 8.323042 -8.533800 0.000000 -68.791000
1.278409 17.345190 1.933317 3.227617 -51.313171 13.255946 -9.043428 2.456012 9.305365 -2.409742 -19.923155 -20.727100 -1.828540 -1.424965 1.401838 0.645424 5.764000 2.734504 1.497100 -0.000000 -46.830100 10.880823 -2.605247 -1.990489 5.918637 -31.914306 -12.342645 2.063835 0.807770 3.042260 -3.884377 -25.055512 7.895463 -8.493400 0.000000 -68.394400
1.285265 17.339138 1.928543 3.427628 -51.404240 13.116098 -9.021642 2.450026 9.280980 -2.556791 -19.955520 -20.734614 -1.843556 -1.423548 1.413049 0.651007 5.767909 2.658478 1.488301 0.000000 -46.678200 10.885446 -2.517098 -1.996509 5.812269 -31.717357 -12.468911 2.014570 0.807378 3.314113 -3.973102 -25.378689 7.488860 -8.454600 0.000000 -68.018200
1.292055 17.333865 1.923765 3.626194 -51.518668 12.972163 -9.004534 2.443239 9.247161 -2.717757 -19.934544 -20.711221 -1.862754 -1.425897 1.376151 0.650978 5.749961 2.617347 1.479700 0.000000 -46.553600 10.889848 -2.433593 -1.996666 5.704663 -31.511689 -12.595491 1.966507 0.805885 3.573905 -4.058743 -25.684591 7.105102 -8.414500 0.000001 -67.649001
1.298632 17.329376 1.918914 3.824144 -51.660702 12.822257 -8.992111 2.436215 9.203980 -2.893178 -19.860028 -20.652170 -1.885695 -1.432211 1.288877 0.646395 5.717130 2.609612 1.472401 -0.000000 -46.452600 10.894345 -2.355400 -1.991761 5.594292 -31.302417 -12.717576 1.920230 0.803619 3.814599 -4.139425 -25.967366 6.751544 -8.374700 0.000000 -67.314700
